<?xml version="1.0" standalone="no"?>
<!DOCTYPE svg PUBLIC "-//W3C//DTD SVG 20010904//EN"
 "http://www.w3.org/TR/2001/REC-SVG-20010904/DTD/svg10.dtd">
<svg version="1.0" xmlns="http://www.w3.org/2000/svg"
 width="500.000000pt" height="500.000000pt" viewBox="0 0 500.000000 500.000000"
 preserveAspectRatio="xMidYMid meet">
<metadata>
Created by potrace 1.14, written by Peter Selinger 2001-2017
</metadata>
<g transform="translate(0.000000,500.000000) scale(0.100000,-0.100000)"
fill="#000000" stroke="none">
<path d="M2370 4997 c-3 -2 -43 -7 -90 -11 -387 -29 -804 -173 -1140 -394
-175 -115 -293 -212 -439 -361 -343 -352 -580 -822 -666 -1324 -31 -182 -42
-535 -21 -653 2 -11 7 -45 11 -78 44 -367 198 -771 410 -1080 129 -187 326
-402 495 -540 138 -113 382 -261 555 -338 208 -93 496 -172 725 -199 185 -22
457 -18 658 11 349 49 739 202 1035 405 569 391 943 974 1061 1658 32 180 43
535 22 653 -2 11 -7 45 -11 78 -44 367 -198 771 -410 1080 -158 230 -392 473
-590 613 -352 248 -737 403 -1145 459 -100 14 -450 30 -460 21z m320 -137
c496 -40 986 -245 1360 -570 188 -163 385 -402 505 -612 l15 -27 -123 -64
c-148 -78 -3902 -2019 -4004 -2071 l-73 -36 -20 39 c-46 90 -135 360 -160 481
-26 133 -27 137 -40 245 -11 85 -15 400 -6 455 2 14 7 54 11 90 11 108 54 309
90 420 123 381 303 679 580 956 262 264 514 426 860 556 318 119 659 166 1005
138z m2000 -1464 c0 -12 -5 -7 -19 24 -11 24 -11 24 3 6 9 -11 16 -24 16 -30z
m30 -76 c6 -11 8 -20 6 -20 -3 0 -10 9 -16 20 -6 11 -8 20 -6 20 3 0 10 -9 16
-20z m28 -85 c-3 -3 -9 2 -12 12 -6 14 -5 15 5 6 7 -7 10 -15 7 -18z m-2268
-828 c0 -2 63 -381 140 -843 219 -1319 231 -1396 228 -1399 -20 -18 -476 -29
-608 -14 -389 44 -821 213 -1136 444 -136 100 -287 238 -373 341 -14 16 -46
54 -72 84 -54 63 -168 230 -199 291 -12 23 -18 45 -13 50 10 10 2015 1048
2026 1049 4 0 7 -1 7 -3z m1342 -144 c18 -11 43 -34 55 -53 22 -31 23 -43 23
-207 0 -195 -7 -225 -61 -264 -28 -20 -49 -25 -114 -27 -93 -4 -135 13 -172
68 -22 31 -23 43 -23 212 0 187 5 212 47 250 54 49 179 59 245 21z m-410 0
c27 -24 22 -61 -18 -127 l-35 -59 30 -25 c46 -35 63 -76 63 -149 -1 -80 -30
-138 -87 -170 -76 -43 -216 -22 -259 38 -19 27 -21 80 -4 97 23 23 65 14 88
-18 13 -19 33 -32 55 -36 107 -20 130 138 25 166 -58 16 -61 43 -16 125 l37
65 -76 0 c-42 0 -85 5 -96 10 -25 14 -26 75 -1 89 9 6 75 11 146 11 107 0 133
-3 148 -17z m772 -6 c34 -34 42 -97 19 -144 -23 -49 -55 -65 -116 -60 -87 7
-129 85 -93 170 18 44 42 56 114 56 43 1 57 -4 76 -22z m217 13 c10 -6 19 -19
19 -30 0 -24 -253 -512 -272 -524 -8 -5 -27 -6 -41 -2 -54 13 -47 39 77 278
64 123 125 238 136 256 21 33 46 40 81 22z m54 -345 c40 -16 55 -46 55 -111 0
-37 -6 -51 -29 -75 -26 -25 -37 -29 -86 -29 -49 0 -60 4 -86 29 -24 25 -29 37
-29 81 0 63 12 88 53 105 42 18 79 18 122 0z m-515 -1299 c0 -2 -7 -7 -16 -10
-8 -3 -12 -2 -9 4 6 10 25 14 25 6z m-65 -46 c-3 -5 -12 -10 -18 -10 -7 0 -6
4 3 10 19 12 23 12 15 0z m-55 -35 c0 -2 -10 -9 -22 -15 -22 -11 -22 -10 -4 4
21 17 26 19 26 11z m-90 -60 c0 -2 -22 -16 -50 -30 -27 -14 -50 -23 -50 -20 0
2 21 16 48 29 53 28 52 28 52 21z m-239 -126 c-18 -11 -35 -18 -38 -15 -5 5
46 35 62 36 6 0 -5 -9 -24 -21z m-136 -59 c-3 -5 -12 -10 -18 -10 -7 0 -6 4 3
10 19 12 23 12 15 0z m-60 -20 c-3 -5 -12 -10 -18 -10 -7 0 -6 4 3 10 19 12
23 12 15 0z m-115 -34 c0 -2 -7 -7 -16 -10 -8 -3 -12 -2 -9 4 6 10 25 14 25 6z"/>
<path d="M1393 3788 c-6 -7 -14 -24 -18 -38 l-7 -25 17 23 c15 21 23 22 140
22 117 0 125 -1 139 -22 11 -16 16 -18 16 -7 0 8 -6 24 -14 35 -13 17 -29 19
-138 22 -94 3 -127 0 -135 -10z"/>
<path d="M1854 3781 c-24 -11 -50 -33 -62 -53 -29 -47 -28 -70 1 -27 32 49 88
74 167 74 76 0 122 -22 157 -75 29 -42 30 -19 1 28 -28 46 -87 72 -163 72 -37
0 -76 -8 -101 -19z"/>
<path d="M2285 3791 c-29 -12 -53 -42 -60 -76 l-6 -30 15 33 c18 38 49 52 114
52 57 0 88 -20 101 -63 6 -20 10 -25 10 -12 1 30 -36 84 -65 95 -30 12 -81 12
-109 1z"/>
<path d="M2557 3758 c-78 -137 -249 -477 -253 -503 l-4 -30 10 30 c18 55 256
498 273 509 12 7 25 7 47 -1 35 -13 40 -1 8 21 -36 26 -55 19 -81 -26z"/>
<path d="M2661 3724 c0 -11 3 -14 6 -6 3 7 2 16 -1 19 -3 4 -6 -2 -5 -13z"/>
<path d="M1363 3680 c0 -25 2 -35 4 -22 2 12 2 32 0 45 -2 12 -4 2 -4 -23z"/>
<path d="M1661 3677 c-13 -21 -12 -21 5 -5 10 10 16 20 13 22 -3 3 -11 -5 -18
-17z"/>
<path d="M2330 3696 c0 -2 9 -6 20 -9 11 -3 18 -1 14 4 -5 9 -34 13 -34 5z"/>
<path d="M2303 3674 c-8 -21 9 -48 31 -52 22 -5 46 16 45 37 0 10 -2 11 -6 4
-2 -7 -18 -13 -35 -13 -25 0 -29 3 -25 20 6 24 -1 27 -10 4z"/>
<path d="M1955 3663 c11 -3 27 -10 35 -17 13 -10 13 -9 1 7 -7 9 -23 16 -35
16 -20 -1 -20 -2 -1 -6z"/>
<path d="M2211 3654 c0 -11 3 -14 6 -6 3 7 2 16 -1 19 -3 4 -6 -2 -5 -13z"/>
<path d="M1518 3653 c23 -2 61 -2 85 0 23 2 4 4 -43 4 -47 0 -66 -2 -42 -4z"/>
<path d="M1764 3485 c0 -99 2 -138 3 -87 2 51 2 132 0 180 -1 48 -3 6 -3 -93z"/>
<path d="M2142 3492 c-2 -188 -10 -223 -57 -260 -15 -12 -23 -22 -17 -22 19 0
71 69 77 102 3 18 4 105 3 193 l-4 160 -2 -173z"/>
<path d="M1471 3609 l-1 -36 58 1 c105 1 163 -53 170 -158 5 -80 -10 -127 -55
-173 -20 -19 -27 -31 -17 -25 82 44 110 186 58 290 -32 64 -79 92 -153 92 -43
0 -50 3 -54 23 -3 14 -5 9 -6 -14z"/>
<path d="M2560 3520 c-33 -66 -58 -120 -55 -120 3 0 32 54 65 120 33 66 58
120 55 120 -3 0 -32 -54 -65 -120z"/>
<path d="M1904 3472 c1 -166 3 -172 59 -172 41 0 48 31 44 194 l-3 141 -2
-148 c-2 -144 -2 -148 -26 -158 -17 -8 -29 -8 -44 0 -20 11 -22 21 -25 154
l-3 142 0 -153z"/>
<path d="M2450 3616 c0 -7 -9 -26 -21 -42 l-21 -29 26 28 c23 25 35 57 21 57
-3 0 -5 -6 -5 -14z"/>
<path d="M1353 3585 c0 -22 2 -30 4 -17 2 12 2 30 0 40 -3 9 -5 -1 -4 -23z"/>
<path d="M2236 3576 c3 -8 13 -17 22 -21 13 -5 13 -2 -3 15 -21 24 -26 25 -19
6z"/>
<path d="M2323 3533 c9 -2 25 -2 35 0 9 3 1 5 -18 5 -19 0 -27 -2 -17 -5z"/>
<path d="M1342 3500 c0 -19 2 -27 5 -17 2 9 2 25 0 35 -3 9 -5 1 -5 -18z"/>
<path d="M1364 3446 c11 -9 31 -16 45 -15 24 1 24 2 -5 8 -17 4 -37 11 -45 15
-8 4 -5 0 5 -8z"/>
<path d="M1509 3450 c25 -4 50 -15 57 -25 8 -10 14 -14 14 -7 0 20 -43 42 -80
41 -34 -1 -33 -2 9 -9z"/>
<path d="M2600 3449 c-19 -4 -45 -19 -57 -34 -30 -35 -29 -51 1 -20 49 49 165
40 193 -15 9 -17 13 -20 13 -8 0 50 -81 92 -150 77z"/>
<path d="M1345 3369 c-9 -17 -14 -42 -12 -57 4 -26 4 -26 6 4 3 61 59 75 101
24 34 -41 89 -51 119 -21 26 26 29 51 3 28 -32 -29 -84 -22 -122 18 -43 44
-74 46 -95 4z"/>
<path d="M1581 3384 c0 -11 3 -14 6 -6 3 7 2 16 -1 19 -3 4 -6 -2 -5 -13z"/>
<path d="M2513 3310 c0 -30 2 -43 4 -27 2 15 2 39 0 55 -2 15 -4 2 -4 -28z"/>
<path d="M2432 3275 c-21 -41 -35 -72 -30 -69 10 6 81 144 74 144 -3 0 -22
-34 -44 -75z"/>
<path d="M2605 3340 c-4 -6 -4 -14 -1 -17 3 -4 6 -1 6 5 0 7 11 12 25 12 19 0
25 -5 25 -21 0 -18 -5 -21 -30 -17 -34 5 -43 -16 -10 -25 28 -7 53 15 48 44
-2 17 -10 25 -30 27 -14 2 -29 -2 -33 -8z"/>
<path d="M2753 3310 c0 -25 2 -35 4 -22 2 12 2 32 0 45 -2 12 -4 2 -4 -23z"/>
<path d="M1770 3294 c0 -17 38 -62 63 -75 15 -7 11 -2 -10 17 -17 16 -36 38
-42 49 -6 11 -11 15 -11 9z"/>
<path d="M1348 3264 c13 -24 61 -58 70 -50 3 3 0 6 -6 6 -6 0 -25 15 -43 32
-21 21 -28 25 -21 12z"/>
<path d="M2718 3228 c-15 -15 -23 -28 -19 -28 9 0 56 49 50 53 -2 1 -16 -10
-31 -25z"/>
<path d="M2526 3235 c6 -15 43 -40 49 -33 1 2 -11 13 -26 26 -21 17 -27 19
-23 7z"/>
<path d="M2317 3209 c7 -7 15 -10 18 -7 3 3 -2 9 -12 12 -14 6 -15 5 -6 -5z"/>
<path d="M1442 3198 c7 -4 40 -7 73 -7 73 1 62 6 -23 11 -34 3 -57 1 -50 -4z"/>
<path d="M1917 3193 c18 -2 50 -2 70 0 21 2 7 4 -32 4 -38 0 -55 -2 -38 -4z"/>
<path d="M2358 3193 c7 -3 16 -2 19 1 4 3 -2 6 -13 5 -11 0 -14 -3 -6 -6z"/>
<path d="M2613 3193 c15 -2 37 -2 50 0 12 2 0 4 -28 4 -27 0 -38 -2 -22 -4z"/>
<path d="M1195 1460 c-73 -30 -128 -158 -95 -221 6 -10 16 -19 22 -19 6 0 3 9
-7 20 -23 26 -16 96 14 139 33 46 76 65 151 65 114 1 170 -45 191 -153 l8 -46
-4 53 c-9 114 -75 173 -196 171 -35 0 -73 -4 -84 -9z"/>
<path d="M1625 1456 c-52 -22 -113 -112 -91 -133 3 -4 6 3 6 15 0 12 16 37 35
56 93 94 288 60 325 -57 l10 -32 -5 34 c-7 45 -49 100 -91 117 -42 18 -149 17
-189 0z"/>
<path d="M2044 1460 c-22 -9 -54 -47 -54 -63 0 -5 14 3 31 17 25 21 41 26 84
26 74 0 104 -26 115 -100 7 -50 8 -51 9 -15 1 54 -31 123 -64 135 -32 12 -92
12 -121 0z"/>
<path d="M2338 1453 c-22 -25 -268 -498 -268 -515 0 -7 60 102 133 242 121
234 134 255 160 258 33 4 54 -11 60 -41 2 -12 3 -6 1 13 -6 55 -54 79 -86 43z"/>
<path d="M1983 1330 c0 -30 2 -43 4 -27 2 15 2 39 0 55 -2 15 -4 2 -4 -28z"/>
<path d="M2083 1363 c-7 -2 -13 -9 -13 -15 0 -6 6 -6 15 2 18 15 45 6 45 -16
0 -12 -7 -15 -30 -12 -24 4 -30 1 -28 -11 2 -10 14 -16 33 -16 26 0 30 4 33
29 5 37 -19 54 -55 39z"/>
<path d="M2295 1133 c-65 -126 -124 -236 -133 -245 -19 -22 -40 -23 -72 -2
l-25 16 24 -21 c30 -27 52 -27 78 2 21 23 259 477 250 477 -3 0 -58 -102 -122
-227z"/>
<path d="M1289 1330 c18 -4 37 -14 42 -22 6 -9 9 -9 9 -1 0 16 -33 33 -62 32
-17 -1 -14 -3 11 -9z"/>
<path d="M1715 1333 c43 -11 45 -19 45 -174 0 -138 -1 -149 -20 -159 -14 -8
-26 -8 -41 0 -19 11 -20 18 -17 170 2 87 0 156 -4 153 -14 -8 -9 -328 4 -341
19 -19 66 -15 78 7 5 11 10 85 10 170 0 161 -6 182 -53 180 -20 -1 -21 -2 -2
-6z"/>
<path d="M1230 1309 c-6 -11 -10 -27 -8 -35 2 -8 8 1 14 20 12 40 10 46 -6 15z"/>
<path d="M1524 1155 c0 -88 2 -123 3 -77 2 46 2 118 0 160 -1 42 -3 5 -3 -83z"/>
<path d="M1332 1270 c-7 -11 -46 -36 -88 -56 -62 -29 -81 -44 -105 -82 -16
-25 -29 -51 -29 -56 0 -6 8 3 19 19 26 43 49 61 129 100 52 25 75 42 83 61 12
33 7 40 -9 14z"/>
<path d="M1914 1160 c0 -74 1 -105 3 -67 2 37 2 97 0 135 -2 37 -3 6 -3 -68z"/>
<path d="M2196 1248 l-17 -33 20 24 c18 20 27 41 18 41 -1 0 -11 -15 -21 -32z"/>
<path d="M1991 1263 c-1 -13 46 -53 63 -53 6 0 -3 9 -20 19 -18 11 -34 25 -37
33 -3 8 -6 9 -6 1z"/>
<path d="M1196 1235 c-11 -8 -15 -15 -9 -15 6 0 16 7 23 15 16 19 11 19 -14 0z"/>
<path d="M1460 1222 c0 -19 -71 -92 -109 -112 -20 -11 -31 -19 -25 -20 5 0 31
13 55 29 44 28 98 96 85 108 -3 4 -6 1 -6 -5z"/>
<path d="M1148 1213 c7 -3 16 -2 19 1 4 3 -2 6 -13 5 -11 0 -14 -3 -6 -6z"/>
<path d="M2088 1203 c12 -2 30 -2 40 0 9 3 -1 5 -23 4 -22 0 -30 -2 -17 -4z"/>
<path d="M2352 1119 c-20 -6 -40 -22 -52 -42 -29 -46 -25 -52 9 -15 27 31 34
33 91 33 55 0 64 -3 86 -28 13 -15 25 -40 25 -55 1 -17 3 -21 6 -9 7 27 -16
86 -40 101 -31 19 -86 26 -125 15z"/>
<path d="M1260 1060 c-11 -11 -20 -31 -20 -44 0 -23 3 -23 102 -28 90 -5 104
-8 120 -28 14 -17 18 -19 18 -6 0 9 -9 25 -20 36 -17 17 -33 20 -115 20 -103
0 -112 6 -73 47 26 28 16 31 -12 3z"/>
<path d="M1102 1040 c0 -14 2 -19 5 -12 2 6 2 18 0 25 -3 6 -5 1 -5 -13z"/>
<path d="M2273 985 c0 -22 2 -30 4 -17 2 12 2 30 0 40 -3 9 -5 -1 -4 -23z"/>
<path d="M2367 1013 c-4 -3 -7 -17 -7 -29 0 -38 51 -52 72 -20 14 20 8 26 -11
15 -23 -15 -51 -5 -51 17 0 12 7 15 30 12 17 -3 30 -1 30 4 0 10 -54 11 -63 1z"/>
<path d="M1901 984 c0 -11 3 -14 6 -6 3 7 2 16 -1 19 -3 4 -6 -2 -5 -13z"/>
<path d="M1530 980 c-1 -40 87 -126 108 -106 3 3 0 6 -6 6 -19 0 -74 53 -88
85 -7 16 -13 23 -14 15z"/>
<path d="M2512 955 c0 -16 2 -22 5 -12 2 9 2 23 0 30 -3 6 -5 -1 -5 -18z"/>
<path d="M1860 917 c-25 -28 -29 -37 -14 -29 20 10 60 61 52 66 -2 1 -19 -15
-38 -37z"/>
<path d="M1101 918 c-1 -10 8 -27 19 -38 18 -18 32 -20 168 -18 l147 2 -144 3
c-149 4 -165 8 -181 48 -7 17 -9 17 -9 3z"/>
<path d="M1471 908 c-1 -9 -9 -22 -18 -27 -10 -6 -13 -11 -7 -11 17 0 37 27
31 42 -4 8 -6 7 -6 -4z"/>
<path d="M2480 893 c-23 -24 -23 -25 -3 -15 22 12 38 30 31 37 -2 2 -14 -8
-28 -22z"/>
<path d="M2307 889 c12 -12 24 -21 27 -18 2 2 -8 13 -22 23 l-27 19 22 -24z"/>
<path d="M1683 863 c20 -2 54 -2 75 0 20 2 3 4 -38 4 -41 0 -58 -2 -37 -4z"/>
<path d="M2373 863 c15 -2 39 -2 55 0 15 2 2 4 -28 4 -30 0 -43 -2 -27 -4z"/>
<path d="M3675 2156 c-14 -21 -16 -50 -13 -176 3 -163 5 -170 61 -170 40 0 47
29 47 188 0 108 -3 142 -16 160 -20 30 -59 29 -79 -2z"/>
<path d="M4070 2195 c-26 -32 13 -81 48 -59 34 22 22 74 -18 74 -10 0 -23 -7
-30 -15z"/>
<path d="M4367 1854 c-4 -4 -7 -20 -7 -35 0 -31 29 -44 55 -25 26 19 16 60
-15 64 -14 2 -29 0 -33 -4z"/>
</g>
</svg>
